<?xml version="1.0" encoding="UTF-8"?>
<svg width="97px" height="97px" viewBox="0 0 97 97" version="1.1" xmlns="http://www.w3.org/2000/svg" xmlns:xlink="http://www.w3.org/1999/xlink">
    <!-- Generator: Sketch 44.1 (41455) - http://www.bohemiancoding.com/sketch -->
    <title>car</title>
    <desc>Created with Sketch.</desc>
    <defs></defs>
    <g id="Page-1" stroke="none" stroke-width="1" fill="none" fill-rule="evenodd">
        <g id="homepage-copy" transform="translate(-165.000000, -1025.000000)">
            <g id="Group-16" transform="translate(122.000000, 1026.000000)">
                <g id="car" transform="translate(44.000000, 0.000000)">
                    <circle id="Oval-4-Copy" stroke="#00BCD4" fill="#00BCD4" cx="47.5" cy="47.5" r="47.5"></circle>
                    <path d="M56.3066797,41.2107469 C55.8248672,41.2107469 55.4342578,41.6592878 55.4342578,42.2126749 C55.4342578,42.7659454 55.8248672,43.2144864 56.3066797,43.2144864 L58.1677109,43.2144864 C58.6495234,43.2144864 59.0401328,42.7659454 59.0401328,42.2126749 C59.0401328,41.6592878 58.6495234,41.2107469 58.1677109,41.2107469 L56.3066797,41.2107469 Z" id="Fill-1" fill="#FFFFFF"></path>
                    <path d="M57.0322422,50.7783375 L56.5669844,52.9154963 C56.5604844,52.945469 56.5373281,52.9661117 56.5105156,52.9661117 L37.4894844,52.9661117 C37.4626719,52.9661117 37.4394141,52.9453524 37.4330156,52.9156129 L36.9677578,50.7783375 C36.965625,50.7687742 36.9608516,50.7466154 36.9783203,50.7209578 C36.9957891,50.6954169 37.0156953,50.6954169 37.024125,50.6954169 L56.975875,50.6954169 C56.9843047,50.6954169 57.0042109,50.6954169 57.0216797,50.7209578 C57.0391484,50.7466154 57.034375,50.7687742 57.0322422,50.7783375 Z M56.975875,48.6914442 L37.024125,48.6914442 C36.4650234,48.6914442 35.9470547,48.9817246 35.6029609,49.4877618 C35.2588672,49.9939156 35.1392266,50.6413027 35.2749141,51.2641985 L35.7401719,53.4015906 C35.9413672,54.3250298 36.6606328,54.9699677 37.4894844,54.9699677 L56.5105156,54.9699677 C57.3393672,54.9699677 58.0586328,54.3250298 58.2598281,53.4014739 L58.7250859,51.2641985 C58.8607734,50.6413027 58.7411328,49.993799 58.3970391,49.4877618 C58.0529453,48.9817246 57.5349766,48.6914442 56.975875,48.6914442 L56.975875,48.6914442 Z" id="Fill-2" fill="#00BCD4"></path>
                    <path d="M68.3467109,40.0752829 C68.3467109,39.4491216 68.7903359,38.9398189 69.3355234,38.9398189 L70.2662422,38.9398189 C70.8114297,38.9398189 71.2550547,39.4491216 71.2550547,40.0752829 C71.2550547,40.7014442 70.8114297,41.2107469 70.2662422,41.2107469 L69.3355234,41.2107469 C68.7903359,41.2107469 68.3467109,40.7014442 68.3467109,40.0752829 Z M69.3937187,49.0554318 L69.3937187,60.3800993 C69.3937187,61.5954516 68.5326719,62.584201 67.4742891,62.584201 L59.0402344,62.584201 L59.0402344,60.3800993 C59.0402344,59.2383375 58.2313906,58.3095335 57.2370937,58.3095335 L36.7629062,58.3095335 C35.7686094,58.3095335 34.9597656,59.2383375 34.9597656,60.3800993 L34.9597656,62.584201 L26.5257109,62.584201 C25.4673281,62.584201 24.6062813,61.5954516 24.6062813,60.3800993 L24.6062813,49.0554318 C24.6062813,48.3152109 24.8280938,47.5889851 25.2308906,47.0109901 L27.8756797,43.2144864 L52.5839062,43.2144864 C53.0657187,43.2144864 53.4563281,42.7659454 53.4563281,42.2126749 C53.4563281,41.6592878 53.0657187,41.2107469 52.5839062,41.2107469 L28.7020937,41.2107469 L31.3306328,32.9099404 C31.6054609,32.0421315 32.3303125,31.4591216 33.1344844,31.4591216 L60.8655156,31.4591216 C61.6696875,31.4591216 62.3945391,32.0421315 62.6693672,32.9099404 L65.2979062,41.2107469 L61.8903828,41.2107469 C61.4085703,41.2107469 61.0178594,41.6592878 61.0178594,42.2126749 C61.0178594,42.7659454 61.4085703,43.2144864 61.8903828,43.2144864 L66.1243203,43.2144864 L68.7693125,47.0109901 C69.1719062,47.5891017 69.3937187,48.3152109 69.3937187,49.0554318 Z M69.3355234,68.9962605 L66.5436719,68.9962605 C66.5114766,68.9962605 66.4854766,68.9662878 66.4854766,68.9294342 L66.4854766,64.5879404 L67.4742891,64.5879404 C68.1776094,64.5879404 68.835125,64.3587717 69.3937188,63.9627122 L69.3937188,68.9294342 C69.3937188,68.9662878 69.3677188,68.9962605 69.3355234,68.9962605 Z M57.2952891,62.584201 L36.7047109,62.584201 L36.7047109,60.3800993 C36.7047109,60.3432457 36.7307109,60.313273 36.7629062,60.313273 L57.2370938,60.313273 C57.2692891,60.313273 57.2952891,60.3432457 57.2952891,60.3800993 L57.2952891,62.584201 Z M27.5145234,68.9294342 C27.5145234,68.9662878 27.4885234,68.9962605 27.4564297,68.9962605 L24.6644766,68.9962605 C24.6322813,68.9962605 24.6062813,68.9662878 24.6062813,68.9294342 L24.6062813,63.9627122 C25.164875,64.3587717 25.8223906,64.5879404 26.5257109,64.5879404 L27.5145234,64.5879404 L27.5145234,68.9294342 Z M24.6644766,41.2107469 L23.7337578,41.2107469 C23.1885703,41.2107469 22.7449453,40.7014442 22.7449453,40.0752829 C22.7449453,39.4491216 23.1885703,38.9398189 23.7337578,38.9398189 L24.6644766,38.9398189 C25.2096641,38.9398189 25.6532891,39.4491216 25.6532891,40.0752829 C25.6532891,40.7014442 25.2096641,41.2107469 24.6644766,41.2107469 Z M41.9723516,27.0285261 C42.0645703,26.4996303 42.4722422,26.1156998 42.9418672,26.1156998 L51.0579297,26.1156998 C51.5277578,26.1156998 51.9354297,26.4996303 52.0274453,27.0285261 L52.45025,29.4553821 L41.5496484,29.4553821 L41.9723516,27.0285261 Z M70.2662422,43.2144864 C71.7736328,43.2144864 73,41.8062357 73,40.0752829 C73,38.34433 71.7736328,36.9360794 70.2662422,36.9360794 L69.3355234,36.9360794 C67.9763125,36.9360794 66.8459219,38.0812233 66.6368047,39.5754268 L64.3092969,32.2253499 C63.7847266,30.5684541 62.4007344,29.4553821 60.8655156,29.4553821 L54.2297266,29.4553821 L53.7385703,26.6356154 C53.4840547,25.1732506 52.3566094,24.1119603 51.0579297,24.1119603 L42.9418672,24.1119603 C41.6432891,24.1119603 40.5159453,25.1732506 40.2613281,26.6356154 L39.7702734,29.4553821 L33.1344844,29.4553821 C31.5992656,29.4553821 30.2152734,30.5684541 29.6907031,32.2252333 L27.3631953,39.5753102 C27.1540781,38.0812233 26.0236875,36.9360794 24.6644766,36.9360794 L23.7337578,36.9360794 C22.2263672,36.9360794 21,38.34433 21,40.0752829 C21,41.8062357 22.2263672,43.2144864 23.7337578,43.2144864 L24.6644766,43.2144864 C25.0941875,43.2144864 25.5008437,43.099727 25.8630156,42.8960993 L23.8682266,45.7592506 C23.2189375,46.6913201 22.8613359,47.8618883 22.8613359,49.0554318 L22.8613359,68.9294342 C22.8613359,70.071196 23.6701797,71 24.6644766,71 L27.4564297,71 C28.450625,71 29.2594687,70.071196 29.2594687,68.9294342 L29.2594687,64.5879404 L64.7405312,64.5879404 L64.7405312,68.9294342 C64.7405312,70.071196 65.549375,71 66.5436719,71 L69.3355234,71 C70.3298203,71 71.1386641,70.071196 71.1386641,68.9294342 L71.1386641,49.0554318 C71.1386641,47.8618883 70.7810625,46.6913201 70.1317734,45.7592506 L68.1369844,42.8960993 C68.4991562,43.099727 68.9058125,43.2144864 69.3355234,43.2144864 L70.2662422,43.2144864 L70.2662422,43.2144864 Z" id="Fill-4" fill="#FFFFFF"></path>
                    <path d="M30.2482812,56.1721414 C29.2540859,56.1721414 28.4452422,57.1009454 28.4452422,58.2427072 C28.4452422,59.384469 29.2540859,60.313273 30.2482812,60.313273 C31.2425781,60.313273 32.0514219,59.384469 32.0514219,58.2427072 C32.0514219,57.1009454 31.2425781,56.1721414 30.2482812,56.1721414" id="Fill-6" fill="#FFFFFF"></path>
                    <path d="M63.7517188,56.1721414 C62.7574219,56.1721414 61.9485781,57.1009454 61.9485781,58.2427072 C61.9485781,59.384469 62.7574219,60.313273 63.7517188,60.313273 C64.7459141,60.313273 65.5548594,59.384469 65.5548594,58.2427072 C65.5548594,57.1009454 64.7459141,56.1721414 63.7517188,56.1721414" id="Fill-7" fill="#FFFFFF"></path>
                    <path d="M29.7830234,52.9661117 C28.9810859,52.9661117 28.3288516,52.2171439 28.3288516,51.2963871 C28.3288516,50.3755136 28.9810859,49.6265459 29.7830234,49.6265459 C30.5848594,49.6265459 31.2370937,50.3755136 31.2370937,51.2963871 C31.2370937,52.2171439 30.5848594,52.9661117 29.7830234,52.9661117 Z M29.7830234,47.6228065 C28.0189844,47.6228065 26.5839063,49.2707221 26.5839063,51.2963871 C26.5839063,53.3220521 28.0189844,54.9699677 29.7830234,54.9699677 C31.5470625,54.9699677 32.9821406,53.3220521 32.9821406,51.2963871 C32.9821406,49.2707221 31.5470625,47.6228065 29.7830234,47.6228065 L29.7830234,47.6228065 Z" id="Fill-8" fill="#FFFFFF"></path>
                    <path d="M64.2169766,52.9661117 C63.4151406,52.9661117 62.7629062,52.2171439 62.7629062,51.2963871 C62.7629062,50.3755136 63.4151406,49.6265459 64.2169766,49.6265459 C65.0189141,49.6265459 65.6711484,50.3755136 65.6711484,51.2963871 C65.6711484,52.2171439 65.0189141,52.9661117 64.2169766,52.9661117 Z M64.2169766,47.6228065 C62.4529375,47.6228065 61.0178594,49.2707221 61.0178594,51.2963871 C61.0178594,53.3220521 62.4529375,54.9699677 64.2169766,54.9699677 C65.9810156,54.9699677 67.4160937,53.3220521 67.4160937,51.2963871 C67.4160937,49.2707221 65.9810156,47.6228065 64.2169766,47.6228065 L64.2169766,47.6228065 Z" id="Fill-9" fill="#FFFFFF"></path>
                </g>
            </g>
        </g>
    </g>
</svg>