<?xml version="1.0" encoding="UTF-8"?>
<svg width="97px" height="97px" viewBox="0 0 97 97" version="1.1" xmlns="http://www.w3.org/2000/svg" xmlns:xlink="http://www.w3.org/1999/xlink">
    <!-- Generator: Sketch 44.1 (41455) - http://www.bohemiancoding.com/sketch -->
    <title>ebill</title>
    <desc>Created with Sketch.</desc>
    <defs></defs>
    <g id="Page-1" stroke="none" stroke-width="1" fill="none" fill-rule="evenodd">
        <g id="homepage-copy" transform="translate(-933.000000, -1025.000000)">
            <g id="Group-11" transform="translate(866.000000, 1026.000000)">
                <g id="ebill" transform="translate(68.000000, 0.000000)">
                    <circle id="Oval-4-Copy-4" stroke="#00BCD4" fill="#00BCD4" cx="47.5" cy="47.5" r="47.5"></circle>
                    <g id="invoice" transform="translate(24.000000, 27.000000)" fill="#FFFFFF">
                        <g id="Group-3">
                            <path d="M44.25,36.75 L3.75,36.75 C2.73225,36.75 1.821,36.078 1.5,35.7585 L1.5,32.25 L46.5,32.25 L46.5,35.7585 C46.179,36.078 45.26775,36.75 44.25,36.75 Z M31.209,43.5 L16.791,43.5 L18.54075,38.25 L29.46,38.25 L31.209,43.5 Z M34.5,46.5 L13.5,46.5 C12.522,46.5 11.688,45.873 11.37825,45 L36.62175,45 C36.312,45.873 35.478,46.5 34.5,46.5 Z M3.75,1.5 L44.25,1.5 C45.6795,1.5 46.5,2.8665 46.5,5.25 L46.5,30.75 L1.5,30.75 L1.5,5.25 C1.5,2.8665 2.3205,1.5 3.75,1.5 Z M44.25,0 L3.75,0 C1.93725,0 0,1.37925 0,5.25 L0,36 C0,36.78675 1.9275,38.25 3.75,38.25 L16.95975,38.25 L15.21,43.5 L10.5,43.5 C10.08525,43.5 9.75,43.83525 9.75,44.25 C9.75,46.31775 11.43225,48 13.5,48 L34.5,48 C36.56775,48 38.25,46.31775 38.25,44.25 C38.25,43.83525 37.91475,43.5 37.5,43.5 L32.79,43.5 L31.04025,38.25 L44.25,38.25 C46.0725,38.25 48,36.78675 48,36 L48,5.25 C48,1.37925 46.06275,0 44.25,0 L44.25,0 Z" id="Fill-1"></path>
                        </g>
                        <polygon id="Fill-4" points="23.25 35.25 24.75 35.25 24.75 33.75 23.25 33.75"></polygon>
                        <polygon id="Fill-5" points="20.25 35.25 21.75 35.25 21.75 33.75 20.25 33.75"></polygon>
                        <polygon id="Fill-6" points="26.25 35.25 27.75 35.25 27.75 33.75 26.25 33.75"></polygon>
                        <path d="M12.3105,7.5 L14.25,5.5605 L14.25,7.5 L12.3105,7.5 Z M15.75,8.25 L15.75,4.5 L27.75,4.5 L27.75,27.75 L11.25,27.75 L11.25,9 L15,9 C15.41475,9 15.75,8.66475 15.75,8.25 Z M29.25,27.75 L30.75,27.75 L30.75,4.5 L29.25,4.5 L29.25,27.75 Z M32.25,27.75 L33.75,27.75 L33.75,4.5 L32.25,4.5 L32.25,27.75 Z M35.25,27.75 L36.75,27.75 L36.75,4.5 L35.25,4.5 L35.25,27.75 Z M10.5,29.25 L37.5,29.25 C37.91475,29.25 38.25,28.91475 38.25,28.5 L38.25,3.75 C38.25,3.33525 37.91475,3 37.5,3 L15,3 C14.79225,3 14.60475,3.08475 14.469,3.2205 L9.97125,7.71825 C9.83475,7.85475 9.75,8.04225 9.75,8.25 L9.75,28.5 C9.75,28.91475 10.08525,29.25 10.5,29.25 L10.5,29.25 Z" id="Fill-7"></path>
                        <path d="M14.25,13.5 L21,13.5 L21,12 L14.25,12 L14.25,13.5 Z M22.5,13.5 L24.75,13.5 L24.75,12 L22.5,12 L22.5,13.5 Z M22.5,24.75 L24.75,24.75 L24.75,23.25 L22.5,23.25 L22.5,24.75 Z M14.25,24.75 L21,24.75 L21,23.25 L14.25,23.25 L14.25,24.75 Z M22.5,21.75 L24.75,21.75 L24.75,15 L22.5,15 L22.5,21.75 Z M14.25,21.75 L21,21.75 L21,15 L14.25,15 L14.25,21.75 Z M12.75,11.25 L12.75,25.5 C12.75,25.91475 13.08525,26.25 13.5,26.25 L25.5,26.25 C25.91475,26.25 26.25,25.91475 26.25,25.5 L26.25,11.25 C26.25,10.83525 25.91475,10.5 25.5,10.5 L13.5,10.5 C13.08525,10.5 12.75,10.83525 12.75,11.25 L12.75,11.25 Z" id="Fill-8"></path>
                        <polygon id="Fill-9" points="17.25 7.5 26.25 7.5 26.25 6 17.25 6"></polygon>
                        <path d="M6.96975,20.78025 L8.03025,19.71975 L5.5605,17.25 L8.03025,14.78025 L6.96975,13.71975 L3.96975,16.71975 C3.6765,17.013 3.6765,17.487 3.96975,17.78025 L6.96975,20.78025" id="Fill-10"></path>
                        <path d="M41.03025,20.78025 L44.03025,17.78025 C44.3235,17.487 44.3235,17.013 44.03025,16.71975 L41.03025,13.71975 L39.96975,14.78025 L42.4395,17.25 L39.96975,19.71975 L41.03025,20.78025" id="Fill-11"></path>
                    </g>
                </g>
            </g>
        </g>
    </g>
</svg>