<?xml version="1.0" encoding="UTF-8"?>
<svg width="97px" height="97px" viewBox="0 0 97 97" version="1.1" xmlns="http://www.w3.org/2000/svg" xmlns:xlink="http://www.w3.org/1999/xlink">
    <!-- Generator: Sketch 44.1 (41455) - http://www.bohemiancoding.com/sketch -->
    <title>feedback</title>
    <desc>Created with Sketch.</desc>
    <defs>
        <polygon id="path-1" points="6.53301309e-21 1.3658422e-14 6.53301309e-21 44.7115818 46.973198 44.7115818 46.973198 0 0 0"></polygon>
    </defs>
    <g id="Page-1" stroke="none" stroke-width="1" fill="none" fill-rule="evenodd">
        <g id="homepage-copy" transform="translate(-1183.000000, -1026.000000)">
            <g id="Group-12" transform="translate(1142.000000, 1027.000000)">
                <g id="feedback" transform="translate(42.000000, 0.000000)">
                    <circle id="Oval-4-Copy-3" stroke="#00BCD4" fill="#00BCD4" cx="47.5" cy="47.5" r="47.5"></circle>
                    <g id="star" transform="translate(24.000000, 25.000000)">
                        <mask id="mask-2" fill="white">
                            <use xlink:href="#path-1"></use>
                        </mask>
                        <g id="Clip-2"></g>
                        <path d="M46.9087189,16.8967153 C46.754824,16.4255233 46.3495394,16.0894896 45.8579676,16.0124794 L31.2034881,13.9363271 L24.6091471,0.720844504 C24.3874035,0.278726542 23.9341548,0 23.442583,0 C22.9506497,0 22.497883,0.278726542 22.2761394,0.730215483 L15.7684471,13.9841431 L1.1138471,16.1565282 C0.622395815,16.2335384 0.217593251,16.5700526 0.063095815,17.0407641 C-0.0912811081,17.5119561 0.0438137637,18.0304836 0.400652225,18.3669978 L11.0344625,28.6413147 L8.57624197,43.1930027 C8.4891112,43.6834172 8.69205479,44.1733512 9.09685735,44.4614487 C9.31860094,44.6252006 9.58830864,44.7115818 9.85861889,44.7115818 C10.0703599,44.7115818 10.2728215,44.6637658 10.465883,44.5576815 L23.5485138,37.6471855 L36.6698291,44.4806712 C36.8628907,44.576904 37.0652317,44.6252006 37.2676933,44.6252006 C37.9813702,44.6252006 38.5693522,44.0386734 38.5693522,43.3276805 C38.5693522,43.2220767 38.5599522,43.125844 38.5307881,43.0296113 L35.9953189,28.5649052 L46.5617625,18.2328006 C46.937883,17.8864348 47.0630958,17.3674268 46.9087189,16.8967153 Z M33.7008753,27.1902547 C33.3920009,27.4883239 33.2573881,27.9204702 33.3341548,28.3438462 L35.5419497,40.9633105 L24.1463779,35.0332832 C23.7702574,34.8314467 23.3173702,34.8408177 22.9313676,35.0332832 L11.5744804,41.0304692 L13.7051471,28.3916622 C13.7723933,27.9688869 13.6377804,27.5459915 13.3290266,27.2480424 L4.11256761,18.3285528 L16.8290804,16.4447458 C17.253165,16.3775871 17.6194035,16.1180831 17.802583,15.7337528 L23.4521035,4.22883428 L29.1792343,15.7046788 C29.3718138,16.0894896 29.7380522,16.3485131 30.1621368,16.4161523 L42.8885317,18.2229491 L33.7008753,27.1902547 Z" id="Fill-1" fill="#FFFFFF" mask="url(#mask-2)"></path>
                    </g>
                </g>
            </g>
        </g>
    </g>
</svg>