<?xml version="1.0" encoding="UTF-8"?>
<svg width="97px" height="97px" viewBox="0 0 97 97" version="1.1" xmlns="http://www.w3.org/2000/svg" xmlns:xlink="http://www.w3.org/1999/xlink">
    <!-- Generator: Sketch 44.1 (41455) - http://www.bohemiancoding.com/sketch -->
    <title>safely</title>
    <desc>Created with Sketch.</desc>
    <defs></defs>
    <g id="Page-1" stroke="none" stroke-width="1" fill="none" fill-rule="evenodd">
        <g id="homepage-copy" transform="translate(-695.000000, -1031.000000)">
            <g id="Group-13" transform="translate(663.000000, 1032.000000)">
                <g id="safely" transform="translate(33.000000, 0.000000)">
                    <circle id="Oval-4-Copy-5" stroke="#00BCD4" fill="#00BCD4" cx="47.5" cy="47.5" r="47.5"></circle>
                    <g id="safe-zone" transform="translate(23.000000, 30.000000)" fill="#FFFFFF">
                        <path d="M47.5093691,7.88144022 C47.2184698,7.60097349 46.8132081,7.44167785 46.3892617,7.44167785 L46.3541477,7.44167785 C44.6992752,7.44167785 43.1565101,6.83552688 42.006443,5.73198339 C40.8396242,4.61307186 40.2420403,3.1436508 40.326443,1.59650293 C40.3464161,1.20875546 40.1930738,0.830169701 39.9008859,0.548225274 C39.6090201,0.267758544 39.205047,0.108462898 38.7811007,0.108462898 L9.15479195,0.108462898 C8.73181208,0.108462898 8.32687248,0.267758544 8.03468456,0.549407431 C7.74281879,0.830169701 7.58947651,1.20875546 7.61073826,1.59650293 C7.69385235,3.1436508 7.0972349,4.61307186 5.92944966,5.73287001 C4.78067114,6.83552688 3.23790604,7.44167785 1.58174497,7.44167785 L1.55404027,7.44167785 C1.11624161,7.43931353 0.719677852,7.59979133 0.42652349,7.88262238 C0.132080537,8.16545342 -0.0199731544,8.54640349 0.00257718121,8.93651528 C0.534765101,17.9862221 4.25073826,34.7823077 23.1504966,45.5937238 C23.4011275,45.7370604 23.6842953,45.8085809 23.9684295,45.8085809 C24.2515973,45.8085809 24.5360537,45.7370604 24.7863624,45.5937238 C43.6861208,34.7823077 47.4011275,17.9862221 47.934604,8.93651528 C47.9571544,8.54640349 47.8038121,8.16545342 47.5093691,7.88144022 Z M23.9684295,42.7077832 C7.85234899,33.0935965 3.97401342,18.7460534 3.19248322,10.1499994 C5.08026846,9.8429341 6.80536913,8.9976919 8.16451007,7.69318173 C9.52236242,6.39103588 10.3828188,4.71473736 10.6347383,2.9462306 L37.302443,2.9462306 C37.5527517,4.71473736 38.4135302,6.39103588 39.7713826,7.69318173 C41.1318121,8.9976919 42.8569128,9.84411626 44.7434094,10.1499994 C43.9631678,18.7460534 40.0835436,33.0935965 23.9684295,42.7077832 Z" id="Fill-1"></path>
                        <path d="M25.0279732,6.57929437 C17.4691007,6.04229958 10.8460671,11.2479276 10.2620134,18.1815735 C9.67699329,25.1140373 15.3509799,31.1909149 22.9075973,31.7276142 C23.2677584,31.7530306 23.6237315,31.7657387 23.9774497,31.7657387 C31.0808054,31.7657387 37.1175302,26.7300458 37.673557,20.1256306 C38.2588993,13.1919847 32.5858792,7.11481146 25.0279732,6.57929437 Z M34.590604,19.9072271 C34.1376644,25.2801303 29.0032752,29.311581 23.146953,28.8981216 C17.2890201,28.4837756 12.892349,23.7734713 13.3452886,18.3996815 C13.7769664,13.280942 18.4555168,9.37864197 23.9610201,9.37864197 C24.2351678,9.37864197 24.5122148,9.38809922 24.7889396,9.40760481 C30.6468725,9.82313297 35.0435436,14.5334372 34.590604,19.9072271 Z" id="Fill-3"></path>
                        <path d="M29.1002416,15.1924897 L21.7765369,20.9475252 L19.2470336,18.2380215 C18.6919732,17.6433966 17.7155436,17.5742404 17.0673826,18.0843411 C16.418255,18.5935552 16.3425503,19.4893346 16.8988993,20.0839595 L20.4338255,23.8695216 C20.7395436,24.1972746 21.1725101,24.3657319 21.6077315,24.3657319 C21.9640268,24.3657319 22.3212886,24.2537226 22.6131544,24.0240886 L31.1110872,17.3478573 C31.7605369,16.8377566 31.8359195,15.9416817 31.2798926,15.3473523 C30.7248322,14.7527274 29.7484027,14.6835712 29.1002416,15.1924897 Z" id="Fill-4"></path>
                    </g>
                </g>
            </g>
        </g>
    </g>
</svg>