<?xml version="1.0" encoding="UTF-8"?>
<svg width="97px" height="97px" viewBox="0 0 97 97" version="1.1" xmlns="http://www.w3.org/2000/svg" xmlns:xlink="http://www.w3.org/1999/xlink">
    <!-- Generator: Sketch 44.1 (41455) - http://www.bohemiancoding.com/sketch -->
    <title>track</title>
    <desc>Created with Sketch.</desc>
    <defs>
        <polygon id="path-1" points="0 0 0 53.8607489 42.8719149 53.8607489 42.8719149 0"></polygon>
    </defs>
    <g id="Page-1" stroke="none" stroke-width="1" fill="none" fill-rule="evenodd">
        <g id="homepage-copy" transform="translate(-438.000000, -1025.000000)">
            <g id="Group-15" transform="translate(401.000000, 1026.000000)">
                <g id="track" transform="translate(38.000000, 0.000000)">
                    <circle id="Oval-4-Copy-2" stroke="#00BCD4" fill="#00BCD4" cx="47.5" cy="47.5" r="47.5"></circle>
                    <g id="taxi-(5)" transform="translate(26.000000, 23.000000)">
                        <g id="Group-3">
                            <mask id="mask-2" fill="white">
                                <use xlink:href="#path-1"></use>
                            </mask>
                            <g id="Clip-2"></g>
                            <path d="M21.5196702,0 L21.3650532,0 C9.58396809,0 0,9.62854468 0,21.4653447 C0,26.7279319 1.9173883,31.7922128 5.3965,35.7245617 L21.4428191,53.8607489 L37.4891383,35.7245617 C40.9691649,31.7922128 42.8856383,26.7279319 42.8856383,21.4653447 C42.8856383,9.62854468 33.3016702,0 21.5196702,0 Z M36.2062287,34.5802213 L21.4428191,51.2666809 L6.67849468,34.5802213 C3.47819681,30.9638298 1.71542553,26.3051234 1.71542553,21.4644255 C1.71542553,10.5791745 10.5301968,1.72340426 21.3650532,1.72340426 L21.5205851,1.72340426 C32.3554415,1.72340426 41.1702128,10.5791745 41.1702128,21.4644255 C41.1702128,26.3051234 39.4074415,30.9638298 36.2062287,34.5802213 Z" id="Fill-1" fill="#FFFFFF" mask="url(#mask-2)"></path>
                        </g>
                        <path d="M34.162234,21.2021277 L32.3564628,21.2021277 L31.752633,15.7453702 C31.6078511,14.4348936 30.5079202,13.4468085 29.1964202,13.4468085 L27.3005319,13.4468085 L27.3005319,10 L15.2925532,10 L15.2925532,13.4468085 L13.3975798,13.4468085 C12.0851649,13.4468085 10.9843191,14.4348936 10.8404521,15.7462894 L10.2366223,21.2021277 L8.43085106,21.2021277 C6.53930851,21.2021277 5,22.7476766 5,24.6489362 L5,33.2659574 C5,34.2163574 5.7701117,34.9893617 6.71542553,34.9893617 L7.57405319,34.9893617 L7.57405319,36.712766 C7.57405319,38.1381362 8.72842021,39.2978723 10.1471915,39.2978723 L11.862617,39.2978723 C13.2804734,39.2978723 14.4357553,38.1381362 14.4357553,36.712766 L14.4357553,34.9893617 L28.1591596,34.9893617 L28.1591596,36.712766 C28.1591596,38.1381362 29.3135266,39.2978723 30.7322979,39.2978723 L32.4477234,39.2978723 C33.8664947,39.2978723 35.0208617,38.1381362 35.0208617,36.712766 L35.0208617,34.9893617 L35.8785745,34.9893617 C36.8248032,34.9893617 37.594,34.2163574 37.594,33.2659574 L37.594,24.6489362 C37.5930851,22.7476766 36.0537766,21.2021277 34.162234,21.2021277 Z M17.0079787,13.4468085 L25.5851064,13.4468085 L25.5851064,11.7234043 L17.0079787,11.7234043 L17.0079787,13.4468085 Z M12.5442128,15.936783 C12.5933883,15.500417 12.9598032,15.1702128 13.3966649,15.1702128 L29.1955053,15.1702128 C29.6332819,15.1702128 30.0006117,15.500417 30.0479574,15.936783 L30.630516,21.2021277 L11.961883,21.2021277 L12.5442128,15.936783 Z M11.8617021,37.5744681 L10.1462766,37.5744681 C9.67373404,37.5744681 9.28764894,37.1884255 9.28764894,36.712766 L9.28764894,34.9893617 L12.7185,34.9893617 L12.7185,36.712766 L12.7194149,36.712766 C12.7194149,37.1884255 12.3342447,37.5744681 11.8617021,37.5744681 Z M32.4468085,37.5744681 L30.731383,37.5744681 C30.2588404,37.5744681 29.8727553,37.1884255 29.8727553,36.712766 L29.8727553,34.9893617 L33.3036064,34.9893617 L33.3036064,36.712766 L33.3045213,36.712766 C33.3045213,37.1884255 32.9193511,37.5744681 32.4468085,37.5744681 Z M6.71542553,33.2659574 L35.8776596,33.2659574 L35.8776596,31.5425532 L6.71542553,31.5425532 L6.71542553,33.2659574 Z M35.8776596,29.8191489 L6.71542553,29.8191489 L6.71542553,24.6489362 C6.71542553,23.6983064 7.48462234,22.9255319 8.43085106,22.9255319 L34.162234,22.9255319 C35.1084628,22.9255319 35.8776596,23.6983064 35.8776596,24.6489362 L35.8776596,29.8191489 Z" id="Fill-4" fill="#FFFFFF"></path>
                        <path d="M21.5731383,19 C20.154367,19 19,20.1595064 19,21.5851064 C19,23.0104766 20.154367,24.1702128 21.5731383,24.1702128 C22.9919096,24.1702128 24.1462766,23.0104766 24.1462766,21.5851064 C24.1462766,20.1595064 22.9919096,19 21.5731383,19 Z M21.5731383,22.4468085 C21.1005957,22.4468085 20.7154255,22.0598468 20.7154255,21.5851064 C20.7154255,21.1101362 21.1005957,20.7234043 21.5731383,20.7234043 C22.0456809,20.7234043 22.4308511,21.1101362 22.4308511,21.5851064 C22.4308511,22.0598468 22.0456809,22.4468085 21.5731383,22.4468085 Z" id="Fill-5" fill="#FFFFFF"></path>
                        <path d="M21.5731383,19 C20.154367,19 19,20.1595064 19,21.5851064 C19,23.0104766 20.154367,24.1702128 21.5731383,24.1702128 C22.9919096,24.1702128 24.1462766,23.0104766 24.1462766,21.5851064 C24.1462766,20.1595064 22.9919096,19 21.5731383,19 Z M21.5731383,22.4468085 C21.1005957,22.4468085 20.7154255,22.0598468 20.7154255,21.5851064 C20.7154255,21.1101362 21.1005957,20.7234043 21.5731383,20.7234043 C22.0456809,20.7234043 22.4308511,21.1101362 22.4308511,21.5851064 C22.4308511,22.0598468 22.0456809,22.4468085 21.5731383,22.4468085 Z" id="Fill-6" fill="#FFFFFF"></path>
                        <polygon id="Fill-7" fill="#FFFFFF" points="15 23.7234043 27.0079787 23.7234043 27.0079787 22 15 22"></polygon>
                        <polygon id="Fill-8" fill="#FFFFFF" points="21 45.7234043 22.7154255 45.7234043 22.7154255 44 21 44"></polygon>
                        <polygon id="Fill-9" fill="#FFFFFF" points="21 42.7234043 22.7154255 42.7234043 22.7154255 41 21 41"></polygon>
                        <polygon id="Fill-10" fill="#FFFFFF" points="21 38.7234043 22.7154255 38.7234043 22.7154255 37 21 37"></polygon>
                    </g>
                </g>
            </g>
        </g>
    </g>
</svg>